<svg id="Layer_1" data-name="Layer 1" xmlns="http://www.w3.org/2000/svg" xmlns:xlink="http://www.w3.org/1999/xlink" viewBox="0 0 4000 4000"><defs><style>.cls-1{fill:url(#linear-gradient);}.cls-2{fill:url(#linear-gradient-2);}.cls-3{fill:url(#linear-gradient-3);}.cls-4{fill:url(#linear-gradient-4);}</style><linearGradient id="linear-gradient" x1="458.76" y1="654.35" x2="911.21" y2="654.35" gradientUnits="userSpaceOnUse"><stop offset="0" stop-color="#359ae5"/><stop offset="1" stop-color="#081f30"/></linearGradient><linearGradient id="linear-gradient-2" x1="3088.76" y1="655.89" x2="3541.21" y2="655.89" xlink:href="#linear-gradient"/><linearGradient id="linear-gradient-3" x1="3088.79" y1="3345.65" x2="3541.24" y2="3345.65" xlink:href="#linear-gradient"/><linearGradient id="linear-gradient-4" x1="458.79" y1="3344.11" x2="911.24" y2="3344.11" xlink:href="#linear-gradient"/></defs><title>ee1 [Converted]</title><polygon class="cls-1" points="598.72 597.21 911.21 597.21 911.21 457.25 598.72 457.25 516.99 457.25 458.76 457.25 458.76 851.46 598.72 851.46 598.72 597.21"/><polygon class="cls-2" points="3401.25 852.99 3541.21 852.99 3541.21 458.78 3482.97 458.78 3401.25 458.78 3088.76 458.78 3088.76 598.74 3401.25 598.74 3401.25 852.99"/><polygon class="cls-3" points="3401.28 3148.54 3401.28 3402.79 3088.79 3402.79 3088.79 3542.75 3401.28 3542.75 3483.01 3542.75 3541.24 3542.75 3541.24 3148.54 3401.28 3148.54"/><polygon class="cls-4" points="598.75 3147.01 458.79 3147.01 458.79 3541.22 517.03 3541.22 598.75 3541.22 911.24 3541.22 911.24 3401.26 598.75 3401.26 598.75 3147.01"/></svg>