<svg id="Layer_1" data-name="Layer 1" xmlns="http://www.w3.org/2000/svg" xmlns:xlink="http://www.w3.org/1999/xlink" viewBox="0 0 4000 4000"><defs><style>.cls-1,.cls-2,.cls-7{stroke:aqua;stroke-miterlimit:10;}.cls-1,.cls-7{stroke-width:11px;fill-rule:evenodd;}.cls-1{fill:url(#linear-gradient);}.cls-2{fill:none;stroke-width:27px;}.cls-3{fill:url(#linear-gradient-2);}.cls-4{fill:url(#linear-gradient-3);}.cls-5{fill:url(#linear-gradient-4);}.cls-6{fill:url(#linear-gradient-5);}.cls-7{fill:#5de6f4;}</style><linearGradient id="linear-gradient" x1="646.67" y1="1998.98" x2="3350.23" y2="1998.98" gradientUnits="userSpaceOnUse"><stop offset="0" stop-color="#359ae5"/><stop offset="1" stop-color="#081f30"/></linearGradient><linearGradient id="linear-gradient-2" x1="458.76" y1="654.35" x2="911.21" y2="654.35" xlink:href="#linear-gradient"/><linearGradient id="linear-gradient-3" x1="3088.76" y1="655.89" x2="3541.21" y2="655.89" xlink:href="#linear-gradient"/><linearGradient id="linear-gradient-4" x1="3088.79" y1="3345.65" x2="3541.24" y2="3345.65" xlink:href="#linear-gradient"/><linearGradient id="linear-gradient-5" x1="458.79" y1="3344.11" x2="911.24" y2="3344.11" xlink:href="#linear-gradient"/></defs><title>SVG logo</title><path class="cls-1" d="M1998.45,647.21c-746.56,0-1351.78,605.21-1351.78,1351.77s605.22,1351.78,1351.78,1351.78S3350.23,2745.55,3350.23,1999,2745,647.21,1998.45,647.21Zm849.07,2362.45H2033.86Q1692.43,2662,1692.44,2662c-112.78-99.36-156.48-275.31-95.89-351.27l459.29-429.92,74.31-69.55,82.93-77.63H1582.22L976.45,1142.17H2363.62a584.05,584.05,0,1,1-200.72,1150.6Z"/><circle class="cls-2" cx="1998.45" cy="1987.48" r="1510.47"/><polygon class="cls-3" points="598.72 597.21 911.21 597.21 911.21 457.25 598.72 457.25 516.99 457.25 458.76 457.25 458.76 851.46 598.72 851.46 598.72 597.21"/><polygon class="cls-4" points="3401.25 852.99 3541.21 852.99 3541.21 458.78 3482.97 458.78 3401.25 458.78 3088.76 458.78 3088.76 598.74 3401.25 598.74 3401.25 852.99"/><polygon class="cls-5" points="3401.28 3148.54 3401.28 3402.79 3088.79 3402.79 3088.79 3542.75 3401.28 3542.75 3483.01 3542.75 3541.24 3542.75 3541.24 3148.54 3401.28 3148.54"/><polygon class="cls-6" points="598.75 3147.01 458.79 3147.01 458.79 3541.22 517.03 3541.22 598.75 3541.22 911.24 3541.22 911.24 3401.26 598.75 3401.26 598.75 3147.01"/><path class="cls-7" d="M2851.34,3009.66H2037.67L1696.25,2662c-112.77-99.36-156.47-275.31-95.88-351.27l459.28-429.92,74.31-69.55,82.93-77.63H1586L980.26,1142.17H2367.44a584.06,584.06,0,1,1-200.73,1150.6Z"/></svg>