<?xml version="1.0" encoding="utf-8"?>
<!-- Svg Vector Icons : http://www.onlinewebfonts.com/icon -->
<!DOCTYPE svg PUBLIC "-//W3C//DTD SVG 1.1//EN" "http://www.w3.org/Graphics/SVG/1.1/DTD/svg11.dtd">
<svg version="1.1" xmlns="http://www.w3.org/2000/svg" xmlns:xlink="http://www.w3.org/1999/xlink" x="0px" y="0px" viewBox="0 0 1000 1000" enable-background="new 0 0 1000 1000" xml:space="preserve">
<metadata> Svg Vector Icons : http://www.onlinewebfonts.com/icon </metadata>
<g><path d="M868.3,10H131.7C64.6,10,10,64.6,10,131.7v736.6C10,935.4,64.6,990,131.7,990H639c21.1,0,38.3-17.1,38.3-38.3c0-21.1-17.1-38.3-38.3-38.3H131.7c-24.9,0-45.1-20.2-45.1-45.1V131.7c0-24.9,20.2-45.1,45.1-45.1h736.6c24.9,0,45.1,20.2,45.1,45.1v736.6c0,25.3-19.3,45.1-44,45.1c-21.1,0-38.3,17.1-38.3,38.3c0,21.1,17.1,38.3,38.3,38.3c66.5,0,120.5-54.6,120.5-121.7V131.7C990,64.6,935.4,10,868.3,10z"/><path d="M858.9,746.4l-17.6-17.6l-69.1,71.6l16.3,16.3c17.9,17.9,47,17.9,65,0l5.4-5.4C876.8,793.4,876.8,764.3,858.9,746.4z"/><path d="M826,713.5l-68.6-68.6c42.5-52.1,68-118.5,68-190.8c0-166.8-135.7-302.4-302.4-302.4c-124.1,0-234.2,74.3-280.6,189.4c-4.7,11.8,0.9,25.2,12.7,29.9c11.8,4.7,25.1-0.9,29.9-12.7c39.3-97.6,132.8-160.6,238-160.6c141.4,0,256.5,115.1,256.5,256.5c0,61.5-21.8,118-58,162.2c-15.9-5.2-34-1.6-46.7,11l-5.4,5.4c-10.9,10.9-15.1,26-12.7,40.1c-39,23.9-84.7,37.7-133.7,37.7c-43.2,0-85.9-10.9-123.5-31.6c-11.1-6.1-25.1-2.1-31.2,9c-6.1,11.1-2.1,25.1,9,31.2c44.4,24.4,94.7,37.3,145.7,37.3c58.5,0,113.2-16.8,159.6-45.7l74.3,74.3L826,713.5z"/><path d="M359.6,462.4c7.9,0,15.3-2,21.8-5.5l88,80.9c-1.9,5-2.9,10.4-2.9,16.1c0,25.6,20.7,46.3,46.3,46.3c25.6,0,46.3-20.7,46.3-46.3c0-6.2-1.2-12.1-3.4-17.4l87.8-154l5.6,33.7c1.9,11.2,11.6,19.2,22.6,19.2c1.3,0,2.5-0.1,3.8-0.3c12.5-2.1,21-13.9,18.9-26.4l-14.1-84.4c-2.1-12.5-14-21-26.4-18.9l-84.4,14.1c-12.5,2.1-21,13.9-18.9,26.4c2.1,12.5,14,21,26.4,18.9l45.7-7.6l-88.8,155.7c-6.3-3.3-13.5-5.1-21.1-5.1c-8.7,0-16.8,2.4-23.7,6.6l-86.9-79.9c2.4-5.6,3.8-11.8,3.8-18.3c0-25.6-20.7-46.3-46.3-46.3s-46.3,20.7-46.3,46.3c0,13.8,6.1,26.2,15.7,34.7l-52.2,128.9c-5.2-2-10.8-3.2-16.7-3.2c-8.6,0-16.6,2.4-23.5,6.5l-59.5-52.4c-6.3-5.6-16-5-21.6,1.4c-5.6,6.3-5,16,1.4,21.6l60,52.8c-1.9,5.1-3,10.6-3,16.4c0,25.6,20.7,46.3,46.3,46.3c25.6,0,46.3-20.7,46.3-46.3c0-7.7-1.9-15-5.3-21.5l56.4-139.1C358.2,462.3,358.9,462.4,359.6,462.4z"/></g>
</svg>